<svg xmlns="http://www.w3.org/2000/svg" viewBox="0 0 55 54">
  <g fill="none" fill-rule="evenodd"  transform="translate(-452 -6)">
    <path fill="#2e3a48" fill-rule="nonzero" d="M479.973 59.07c0-.197-.152-2.368-.167-2.384a7.757 7.757 0 00-.677.036c-2.696.202-5.783-.131-8.601-.93-5.617-1.592-10.567-5.118-13.967-9.949-1.269-1.803-2.416-4.045-3.168-6.188-1.38-3.936-1.746-8.288-1.047-12.443 1.28-7.61 6.013-14.245 12.86-18.033 3.914-2.165 8.53-3.293 12.973-3.17 3.769.104 7.24.936 10.529 2.523 2.662 1.285 4.788 2.784 6.933 4.888l.861.845-1.16 1.154-1.161 1.154-.849-.837c-1.413-1.394-2.694-2.386-4.34-3.362a22.294 22.294 0 00-7.703-2.812c-1.143-.19-1.864-.25-3.254-.276-1.824-.033-3.053.065-4.664.373a22.353 22.353 0 00-15.709 11.791c-2.002 3.921-2.772 8.466-2.182 12.88a22.013 22.013 0 004.604 10.76c.183.23.34.41.35.4.016-.015 1.358-6.518 3.183-15.416.343-1.673.688-3.235.766-3.47a6.631 6.631 0 011.689-2.712c.957-.948 1.909-1.468 3.132-1.713.607-.121 1.623-.08 2.114.087 1.612.548 5.32 2.667 10.832 6.192 1.703 1.088 1.927 1.246 2.061 1.448.435.652-.152 1.57-.936 1.462-.093-.012-1.998-.75-4.235-1.64-2.237-.89-4.153-1.64-4.258-1.67-.266-.072-.86-.064-1.16.016-.575.152-1.045.564-1.35 1.182-.324.658-.466 1.456-.42 2.36.025.48 2.434 20.975 2.519 21.425a.99.99 0 00.065.241c.047.046 1.188.159 2.147.212.952.052 2.939-.006 3.013-.089.016-.018-.014-.606-.066-1.307-.052-.7-.084-1.285-.07-1.299.014-.014 1.023.73 2.243 1.65 2.904 2.196 2.963 2.242 2.948 2.284-.018.049-4.619 4.464-4.652 4.464-.014 0-.026-.058-.026-.128zm-8.63-6.518c-.014-.046-.836-2.906-1.826-6.357-.99-3.45-1.843-6.386-1.894-6.523-.118-.313-.364-.54-.586-.54-.22 0-.503.217-.662.508-.108.197-.816 2.13-2.99 8.167l-.171.473.21.186c.527.466 1.769 1.335 2.77 1.937a27.339 27.339 0 002.847 1.423c.564.231 2.193.807 2.288.808.021 0 .027-.036.014-.082zm14.419 3.586c0-.01.25-.476.554-1.035.305-.56.584-1.072.619-1.139l.063-.12-.705-.395c-2.967-1.658-4.918-4.282-5.67-7.626-.206-.912-.281-1.637-.282-2.697-.001-1.399.162-2.495.55-3.701.57-1.77 1.411-3.167 2.765-4.586.55-.575.693-.668.449-.288-.389.603-.686 1.413-.815 2.222-.11.695-.065 1.951.097 2.677.348 1.56 1.164 3.17 2.275 4.492 1.217 1.448 3.41 2.98 4.894 3.417.13.038.135.03.687-1.028.307-.586.573-1.066.592-1.066.033 0 3.356 8.95 3.332 8.975-.006.006-.279.066-.606.133-.656.134-6.483 1.31-7.77 1.569-.448.09-.862.174-.921.188-.06.014-.108.018-.108.008zm17.223-12.378c-.329-.586-.611-1.09-.628-1.117-.019-.032-.264.075-.65.284a12.121 12.121 0 01-4.104 1.35c-.56.079-2.358.079-2.919 0-1.403-.2-2.99-.712-4.183-1.35-3.246-1.732-5.404-4.508-6.177-7.943a5.243 5.243 0 01-.092-.475c0-.033.099.121.219.344.947 1.755 2.763 2.98 5.107 3.445 2.151.426 4.211.219 6.454-.648 1-.387 2.09-.989 2.679-1.479l.131-.109-.621-1.068a27.424 27.424 0 01-.622-1.1c0-.016.091-.01.203.016.678.151 9.171 1.989 9.194 1.989.058 0 .02.13-.23.78-1.505 3.913-3.106 8.05-3.131 8.093-.018.03-.3-.426-.63-1.012zm-15.142-8.482a13.669 13.669 0 01-3.13-.749l-.357-.138.72.023c1.428.046 2.617-.296 3.891-1.119 2.696-1.74 4.48-5.037 4.716-8.718.034-.526-.007-1.36-.072-1.464-.028-.044-.37-.075-1.266-.112-.675-.028-1.221-.067-1.214-.086.022-.056 6.787-6.808 6.803-6.79.218.256 5.672 7.619 5.655 7.636-.013.013-.58-.009-1.259-.048a27.36 27.36 0 00-1.25-.058c-.007.007-.043.374-.08.815a11.342 11.342 0 01-.649 3.04c-.185.527-.695 1.59-.989 2.065-1.834 2.96-5.18 5.107-8.787 5.639-.593.087-2.148.124-2.732.064zM471.72 21.109a4.474 4.474 0 01-1.34-.441c-.295-.153-.491-.306-.862-.674-.55-.545-.768-.886-.99-1.545-.146-.43-.153-.486-.153-1.189 0-.677.011-.77.134-1.14.505-1.53 1.755-2.544 3.355-2.722a3.943 3.943 0 013.496 1.498c.524.689.793 1.492.792 2.364a3.802 3.802 0 01-1.5 3.058c-.399.304-1.019.604-1.473.714-.402.097-1.094.133-1.459.077z"/>
  </g>
</svg>
